<?xml version="1.0" encoding="UTF-8"?>
<svg version="1.1" xmlns="http://www.w3.org/2000/svg" width="16" height="16">
<path d="M0 0 C4 1 4 1 6 3 C6.1971417 7.13997567 6.30765478 10.07703567 5 14 C2.69 14.33 0.38 14.66 -2 15 C-1.67 12.69 -1.34 10.38 -1 8 C-0.01 8 0.98 8 2 8 C1.34 5.36 0.68 2.72 0 0 Z " fill="#0176F9" transform="translate(10,1)"/>
<path d="M0 0 C-0.33 2.31 -0.66 4.62 -1 7 C-1.99 7 -2.98 7 -4 7 C-3.34 9.64 -2.68 12.28 -2 15 C-6 14 -6 14 -8 12 C-8.1971417 7.86002433 -8.30765478 4.92296433 -7 1 C-4.53721199 -0.231394 -2.7204945 -0.07159196 0 0 Z " fill="#0175F9" transform="translate(8,0)"/>
<path d="M0 0 C1.32 0.66 2.64 1.32 4 2 C4.3125 5.25 4.3125 5.25 4 9 C1.5 11.4375 1.5 11.4375 -1 13 C-1 11.02 -1 9.04 -1 7 C-0.01 7 0.98 7 2 7 C1.34 4.69 0.68 2.38 0 0 Z " fill="#0967D0" transform="translate(10,2)"/>
<path d="M0 0 C0 1.98 0 3.96 0 6 C-0.99 6 -1.98 6 -3 6 C-2.34 8.31 -1.68 10.62 -1 13 C-2.32 12.34 -3.64 11.68 -5 11 C-5.49095023 4.61764706 -5.49095023 4.61764706 -3.0625 1.5625 C-1 0 -1 0 0 0 Z " fill="#0967D0" transform="translate(7,1)"/>
</svg>
